<svg id="Capa_1" enable-background="new 0 0 512.035 512.035" height="512" viewBox="0 0 512.035 512.035" width="512" xmlns="http://www.w3.org/2000/svg" xmlns:xlink="http://www.w3.org/1999/xlink"><linearGradient id="SVGID_1_" gradientUnits="userSpaceOnUse" x1="256.017" x2="256.017" y1="512.035" y2="0"><stop offset="0" stop-color="#5558ff"/><stop offset="1" stop-color="#00c0ff"/></linearGradient><g><g><g><path d="m287.011 150c41.355 0 75 33.645 75 75 0 8.284 6.716 15 15 15s15-6.716 15-15c0-57.897-47.103-105-105-105-8.284 0-15 6.716-15 15s6.716 15 15 15zm0 60c8.271 0 15 6.729 15 15 0 8.284 6.716 15 15 15s15-6.716 15-15c0-24.813-20.187-45-45-45-8.284 0-15 6.716-15 15s6.716 15 15 15zm122.69 176.858-76.367-50.911c-17.782-11.856-41.665-9.493-56.781 5.622l-24.66 24.661c-1.308.166-7.817.342-22.896-8.752-12.71-7.667-27.313-19.492-41.119-33.299-13.807-13.806-25.632-28.409-33.299-41.119-9.096-15.079-8.919-21.586-8.752-22.896l24.659-24.66c15.116-15.115 17.48-38.996 5.623-56.782l-50.912-76.367c-15.735-23.605-49.164-26.958-69.262-6.858l-37.764 37.763c-17.33 17.33-31.056 51.963 1.97 118.538 21.116 42.567 57.847 91.111 103.426 136.691 45.58 45.58 94.124 82.311 136.691 103.426 38.936 19.315 87.941 32.565 118.537 1.97l37.764-37.764c20.101-20.1 16.747-53.527-6.858-69.263zm-14.355 48.049-37.764 37.764c-19.792 19.793-61.119 3.714-83.993-7.632-39.15-19.421-86.1-55.055-128.809-97.764-42.71-42.709-78.344-89.659-97.765-128.81-11.346-22.873-27.425-64.199-7.632-83.993l37.764-37.763c6.688-6.687 17.832-5.598 23.088 2.286l50.912 76.367c3.952 5.928 3.164 13.888-1.875 18.927l-25.035 25.036c-8.183 8.183-14.582 24.117 1.401 53.56 8.791 16.195 23.361 34.842 41.025 52.506 17.663 17.664 36.311 32.233 52.505 41.025 29.44 15.982 45.377 9.585 53.561 1.401l25.035-25.036c5.038-5.039 12.998-5.826 18.928-1.874l76.367 50.911c7.884 5.258 8.974 16.402 2.287 23.089zm-108.335-374.907c-8.284 0-15 6.716-15 15s6.716 15 15 15c74.439 0 135 60.561 135 135 0 8.284 6.716 15 15 15s15-6.716 15-15c0-90.981-74.018-165-165-165zm0-60c-8.284 0-15 6.716-15 15s6.716 15 15 15c107.523 0 195 87.477 195 195 0 8.284 6.716 15 15 15s15-6.716 15-15c0-124.065-100.934-225-225-225z" fill="url(#SVGID_1_)"/></g></g></g></svg>
